<svg xmlns="http://www.w3.org/2000/svg" viewBox="0 0 87 87"><title>Asset 2</title><path d="M59.45,83H27.55A23.62,23.62,0,0,1,4,59.45V27.56A23.62,23.62,0,0,1,27.55,4h31.9A23.62,23.62,0,0,1,83,27.56V59.45A23.62,23.62,0,0,1,59.45,83" style="fill:#231f20"/><path d="M27.55,4H59.45A23.55,23.55,0,0,1,83,27.55V59.44A23.56,23.56,0,0,1,59.44,83H27.55A23.55,23.55,0,0,1,4,59.45V27.55A23.55,23.55,0,0,1,27.55,4Z" style="fill:none;stroke:#231f20;stroke-miterlimit:10;stroke-width:8px"/><path d="M12.09,22.94V63.33H34.74c13.41-1.5,14.9-20.72,3.87-22.06C48.05,38.13,45.7,23.63,35,22.94Z" style="fill:#fff"/><path d="M75.91,50.48H56.05c0,8.11,12.07,9.24,13.56,2.68l7.19.14C75.94,60.55,70.92,63.63,63.35,64c-8.34.45-16.64-5.6-16.09-15.8.47-8.75,6.41-15.69,15.94-15.2,11.63.6,12.87,8.65,13.56,15.05a22.54,22.54,0,0,1,.15,2.39Z" style="fill:#fff"/><path d="M69.88,30.09h-15a.77.77,0,0,1-.77-.77V25.94a.78.78,0,0,1,.77-.77h15a.77.77,0,0,1,.77.77v3.38a.76.76,0,0,1-.77.77" style="fill:#fff"/><path d="M55.9,45.14H69.16c-.59-8.34-11.92-8-13.26,0" style="fill:#231f20"/><path d="M21.33,30.31v8.5a.22.22,0,0,0,.22.22H32.61a1.91,1.91,0,0,0,1-.3,5.06,5.06,0,0,0,.28-8.36,1.62,1.62,0,0,0-.93-.28H21.55a.22.22,0,0,0-.22.22" style="fill:#231f20"/><path d="M21.33,45.35V55.67a.2.2,0,0,0,.2.2H33a3.68,3.68,0,0,0,3-1.45,6.68,6.68,0,0,0-1-8.56,2.77,2.77,0,0,0-1.87-.72H21.53a.21.21,0,0,0-.2.21" style="fill:#231f20"/></svg>