<svg xmlns="http://www.w3.org/2000/svg" viewBox="0 0 87 87"><title>Asset 3</title><path d="M27.55,4H59.45A23.55,23.55,0,0,1,83,27.55V59.44A23.56,23.56,0,0,1,59.44,83H27.56A23.56,23.56,0,0,1,4,59.44V27.55A23.55,23.55,0,0,1,27.55,4Z" style="fill:none;stroke:#231f20;stroke-miterlimit:10;stroke-width:8px"/><path d="M60.48,43.5a17,17,0,1,1-17-17A17,17,0,0,1,60.48,43.5Z" style="fill:none;stroke:#231f20;stroke-miterlimit:10;stroke-width:8px"/><path d="M64.91,26.07c7.72,0,7.73-12,0-12s-7.74,12,0,12" style="fill:#231f20"/></svg>