<svg xmlns="http://www.w3.org/2000/svg" viewBox="0 0 69.7 96.66"><title>Asset 4</title><path d="M4.84,47.19a95.56,95.56,0,0,0,14.73-9.74c4.72-3.76,10.16-7.73,13.2-13.15,2-3.64,2.9-10.32-2.63-11.17-4.22-.65-6.68,4.91-7.39,8.37-1.32,6.55.31,13.68,1.39,20.14,1.22,7.31,2.52,15.85.57,23.14A19.41,19.41,0,0,1,12.17,78C9.33,78.88,4.74,79.74,3,76.4c-1.47-2.85.46-6.5,1.8-9,7.31-13.67,20.23-21.65,32.33-30.26,6.19-4.41,12.23-9,18-14C59.66,19.2,65,15.32,68,9.92,70,6.21,70.17,1.09,65.2.16,60.7-.69,56.79,2,54.12,5.5c-3.37,4.44-4.61,11.35-5.6,16.75a130,130,0,0,0-1.9,18c-.78,18.3.2,36.76.5,55.07a1.27,1.27,0,0,0,2.15.92,49.84,49.84,0,0,1,5-4.54c1.26-1-.53-2.88-1.78-1.84a51.08,51.08,0,0,0-5,4.54l2.14.92c-.22-14.06-.52-28.11-.66-42.17-.12-11.44.19-23.07,2.8-34.24,1.29-5.5,2.77-11.69,7.58-15,1.64-1.15,4.52-2,6.39-.91,3.07,1.77-.41,6.61-1.79,8.37a46.43,46.43,0,0,1-5.62,5.51C55.5,19.44,52.64,22,49.72,24.4,44,29.14,38,33.41,32,37.66,21.34,45.17,10.64,52.56,3.76,64.13c-2.18,3.67-5.14,8.92-3,13.29,2.25,4.69,8,4.38,12.12,3a22.1,22.1,0,0,0,11.44-8.75C27.74,66.58,28,60.64,28,54.58c0-7.92-2.15-15.53-2.89-23.36-.32-3.31-.59-6.95.36-10.18.63-2.11,3.56-8.11,6.05-4.14,1.95,3.12-1.84,7.88-3.8,10a84,84,0,0,1-8.2,7.36A97.8,97.8,0,0,1,3.57,45c-1.44.77-.17,3,1.27,2.24" style="fill:#020303"/><path d="M68.18,84.32c2,0,2-3.24,0-3.24s-2,3.24,0,3.24" style="fill:#020303"/></svg>